<svg xmlns="http://www.w3.org/2000/svg" width="32" height="32" viewBox="0 0 168 168">
  <circle fill="#1DB954" cx="84" cy="84" r="84"/>
  <path fill="#ffffff" d="M119.2 122.5c-1.5 2.4-4.7 3.2-7.2 1.7-19.7-12-44.5-14.8-73.9-8.4-2.7.6-5.3-1.2-6-3.9-.6-2.7 1.2-5.3 3.9-6 32.8-7 61.5-4 83.7 10.1 2.3 1.5 3.1 4.7 1.7 7.1zM128.2 99c-1.9 3-5.9 3.9-8.8 2.1-22.6-14-57.2-18-83.9-10.3-3.2.9-6.5-.9-7.4-4.1-.9-3.2.9-6.5 4.1-7.4 31.5-8.8 70.1-4.3 96.6 11.8 3.1 1.9 4 5.9 2 8.9zM129.5 75.4c-26.4-16.1-70.1-17.5-95-10.1-3.7 1.1-7.6-1-8.7-4.7-1.1-3.7 1-7.6 4.7-8.7 28.9-8.6 78.1-6.8 109.6 11.7 3.4 2 4.4 6.4 2.4 9.7-2.1 3.3-6.6 4.3-10 2.1z"/>
</svg>
